<?xml version="1.0" encoding="utf-8"?>
<!-- Generator: Adobe Illustrator 25.2.1, SVG Export Plug-In . SVG Version: 6.00 Build 0)  -->
<svg version="1.1" id="Layer_1" xmlns="http://www.w3.org/2000/svg" xmlns:xlink="http://www.w3.org/1999/xlink" x="0px" y="0px"
	 viewBox="0 0 768 1024" style="enable-background:new 0 0 768 1024;" xml:space="preserve">
<style type="text/css">
	.st0{fill:#5DC9E1;}
</style>
<path d="M640,448c-47.6,0-88.6,26.3-110.6,64.9c-5.8-0.4-11.4-0.9-17.4-0.9c-131.1,0-255.4-99.8-300.8-223.4
	c27.3-23.5,44.8-57.8,44.8-96.6c0-70.7-57.3-128-128-128S0,121.3,0,192c0,47.2,25.8,88.1,64,110.3v419.5C25.8,743.9,0,784.8,0,832
	c0,70.6,57.3,128,128,128s128-57.4,128-128c0-47.2-25.8-88.1-64-110.2V491.5c84.2,89,200.4,148.5,320,148.5c6.4,0,11.6-0.4,17.4-0.6
	C551.5,677.8,592.5,704,640,704c70.6,0,128-57.4,128-128C768,505.3,710.6,448,640,448z M128,896c-35.3,0-64-28.6-64-64
	c0-35.3,28.7-64,64-64c35.4,0,64,28.7,64,64C192,867.4,163.4,896,128,896z M128,256c-35.3,0-64-28.6-64-64s28.7-64,64-64
	c35.4,0,64,28.6,64,64S163.4,256,128,256z M640,640c-35.3,0-64-28.6-64-64c0-35.4,28.7-64,64-64c35.4,0,64,28.6,64,64
	C704,611.4,675.4,640,640,640z"/>
<g>
	<g>
		<g>
			<g>
				<path class="st0" d="M144.8,162.2c-1.2,0-1.5-0.6-0.9-1.5l6.3-8.1c0.6-0.9,2.1-1.5,3.3-1.5h107.1c1.2,0,1.5,0.9,0.9,1.8
					l-5.1,7.8c-0.6,0.9-2.1,1.8-3,1.8L144.8,162.2z"/>
			</g>
		</g>
	</g>
	<g>
		<g>
			<g>
				<path class="st0" d="M99.5,189.8c-1.2,0-1.5-0.6-0.9-1.5l6.3-8.1c0.6-0.9,2.1-1.5,3.3-1.5H245c1.2,0,1.8,0.9,1.5,1.8l-2.4,7.2
					c-0.3,1.2-1.5,1.8-2.7,1.8L99.5,189.8z"/>
			</g>
		</g>
	</g>
	<g>
		<g>
			<g>
				<path class="st0" d="M172.1,217.4c-1.2,0-1.5-0.9-0.9-1.8l4.2-7.5c0.6-0.9,1.8-1.8,3-1.8h60c1.2,0,1.8,0.9,1.8,2.1l-0.6,7.2
					c0,1.2-1.2,2.1-2.1,2.1L172.1,217.4z"/>
			</g>
		</g>
	</g>
	<g>
		<g id="CXHf1q_7_">
			<g>
				<g>
					<path class="st0" d="M483.5,156.8c-18.9,4.8-31.8,8.4-50.4,13.2c-4.5,1.2-4.8,1.5-8.7-3c-4.5-5.1-7.8-8.4-14.1-11.4
						c-18.9-9.3-37.2-6.6-54.3,4.5c-20.4,13.2-30.9,32.7-30.6,57c0.3,24,16.8,43.8,40.5,47.1c20.4,2.7,37.5-4.5,51-19.8
						c2.7-3.3,5.1-6.9,8.1-11.1c-10.8,0-24.3,0-57.9,0c-6.3,0-7.8-3.9-5.7-9c3.9-9.3,11.1-24.9,15.3-32.7c0.9-1.8,3-4.8,7.5-4.8
						c15.3,0,71.7,0,109.2,0c-0.6,8.1-0.6,16.2-1.8,24.3c-3.3,21.6-11.4,41.4-24.6,58.8c-21.6,28.5-49.8,46.2-85.5,51
						c-29.4,3.9-56.7-1.8-80.7-19.8c-22.2-16.8-34.8-39-38.1-66.6c-3.9-32.7,5.7-62.1,25.5-87.9c21.3-27.9,49.5-45.6,84-51.9
						c28.2-5.1,55.2-1.8,79.5,14.7c15.9,10.5,27.3,24.9,34.8,42.3C488.3,154.4,487.1,155.9,483.5,156.8z"/>
				</g>
				<g>
					<path class="st0" d="M582.8,322.7c-27.3-0.6-52.2-8.4-73.2-26.4c-17.7-15.3-28.8-34.8-32.4-57.9c-5.4-33.9,3.9-63.9,24.3-90.6
						c21.9-28.8,48.3-43.8,84-50.1c30.6-5.4,59.4-2.4,85.5,15.3c23.7,16.2,38.4,38.1,42.3,66.9c5.1,40.5-6.6,73.5-34.5,101.7
						c-19.8,20.1-44.1,32.7-72,38.4C598.7,321.5,590.6,321.8,582.8,322.7z M654.2,201.5c-0.3-3.9-0.3-6.9-0.9-9.9
						c-5.4-29.7-32.7-46.5-61.2-39.9c-27.9,6.3-45.9,24-52.5,52.2c-5.4,23.4,6,47.1,27.6,56.7c16.5,7.2,33,6.3,48.9-1.8
						C639.8,246.5,652.7,227.3,654.2,201.5z"/>
				</g>
			</g>
		</g>
	</g>
</g>
</svg>
